<svg width="268" height="23" viewBox="0 0 268 23" fill="none" xmlns="http://www.w3.org/2000/svg">
<line x1="7" y1="11.5" x2="76" y2="11.5" stroke="black"/>
<line x1="190" y1="11.5" x2="259" y2="11.5" stroke="black"/>
<path d="M90.313 16.1364C89.7477 16.1364 89.2477 15.9929 88.813 15.706C88.3812 15.419 88.0431 15.0227 87.7988 14.517C87.5545 14.0085 87.4324 13.4219 87.4324 12.7571C87.4324 12.0866 87.5545 11.4972 87.7988 10.9886C88.0431 10.4773 88.3812 10.0795 88.813 9.79545C89.2477 9.50852 89.7477 9.36506 90.313 9.36506C90.8784 9.36506 91.377 9.50852 91.8088 9.79545C92.2406 10.0824 92.5787 10.4801 92.823 10.9886C93.0701 11.4972 93.1937 12.0866 93.1937 12.7571C93.1937 13.4219 93.0716 14.0085 92.8272 14.517C92.5829 15.0227 92.2434 15.419 91.8088 15.706C91.377 15.9929 90.8784 16.1364 90.313 16.1364ZM90.313 15.4418C90.7676 15.4418 91.1525 15.3196 91.4679 15.0753C91.7832 14.831 92.0218 14.5057 92.1838 14.0994C92.3485 13.6932 92.4309 13.2457 92.4309 12.7571C92.4309 12.2685 92.3485 11.8196 92.1838 11.4105C92.0218 11.0014 91.7832 10.6733 91.4679 10.4261C91.1525 10.179 90.7676 10.0554 90.313 10.0554C89.8613 10.0554 89.4764 10.179 89.1582 10.4261C88.8429 10.6733 88.6028 11.0014 88.438 11.4105C88.2761 11.8196 88.1951 12.2685 88.1951 12.7571C88.1951 13.2457 88.2761 13.6932 88.438 14.0994C88.6028 14.5057 88.8429 14.831 89.1582 15.0753C89.4735 15.3196 89.8585 15.4418 90.313 15.4418ZM99.0179 13.4986V9.45455H99.7765V16H99.0179V14.9134H98.9583C98.8049 15.2486 98.562 15.5284 98.2296 15.7528C97.8972 15.9744 97.4909 16.0852 97.0108 16.0852C96.5932 16.0852 96.2225 15.9943 95.8986 15.8125C95.5748 15.6278 95.3205 15.358 95.1358 15.0028C94.9512 14.6477 94.8588 14.2116 94.8588 13.6946V9.45455H95.6174V13.6477C95.6174 14.1591 95.7679 14.571 96.0691 14.8835C96.3702 15.1932 96.7566 15.348 97.2282 15.348C97.5236 15.348 97.8077 15.277 98.0804 15.1349C98.3532 14.9929 98.5776 14.7855 98.7537 14.5128C98.9299 14.2372 99.0179 13.8991 99.0179 13.4986ZM107.716 16.1364C107.131 16.1364 106.621 15.9901 106.187 15.6974C105.755 15.4048 105.42 15.0043 105.181 14.4957C104.942 13.9872 104.823 13.4077 104.823 12.7571C104.823 12.1009 104.944 11.517 105.185 11.0057C105.43 10.4943 105.768 10.0937 106.199 9.80398C106.631 9.51136 107.133 9.36506 107.704 9.36506C108.141 9.36506 108.537 9.45028 108.893 9.62074C109.248 9.78835 109.54 10.0256 109.77 10.3324C110.003 10.6364 110.15 10.9915 110.209 11.3977H109.442C109.363 11.0284 109.171 10.7131 108.867 10.4517C108.566 10.1875 108.182 10.0554 107.716 10.0554C107.299 10.0554 106.93 10.169 106.608 10.3963C106.287 10.6207 106.036 10.9347 105.854 11.3381C105.675 11.7386 105.586 12.2031 105.586 12.7315C105.586 13.2628 105.674 13.733 105.85 14.142C106.026 14.5483 106.273 14.8665 106.591 15.0966C106.912 15.3267 107.287 15.4418 107.716 15.4418C108.006 15.4418 108.27 15.3878 108.509 15.2798C108.751 15.169 108.952 15.0128 109.114 14.8111C109.279 14.6094 109.39 14.3693 109.447 14.0909H110.214C110.157 14.4858 110.016 14.8381 109.792 15.1477C109.57 15.4545 109.282 15.696 108.927 15.8722C108.574 16.0483 108.171 16.1364 107.716 16.1364ZM114.383 16.1364C113.818 16.1364 113.318 15.9929 112.883 15.706C112.452 15.419 112.113 15.0227 111.869 14.517C111.625 14.0085 111.503 13.4219 111.503 12.7571C111.503 12.0866 111.625 11.4972 111.869 10.9886C112.113 10.4773 112.452 10.0795 112.883 9.79545C113.318 9.50852 113.818 9.36506 114.383 9.36506C114.949 9.36506 115.447 9.50852 115.879 9.79545C116.311 10.0824 116.649 10.4801 116.893 10.9886C117.14 11.4972 117.264 12.0866 117.264 12.7571C117.264 13.4219 117.142 14.0085 116.898 14.517C116.653 15.0227 116.314 15.419 115.879 15.706C115.447 15.9929 114.949 16.1364 114.383 16.1364ZM114.383 15.4418C114.838 15.4418 115.223 15.3196 115.538 15.0753C115.854 14.831 116.092 14.5057 116.254 14.0994C116.419 13.6932 116.501 13.2457 116.501 12.7571C116.501 12.2685 116.419 11.8196 116.254 11.4105C116.092 11.0014 115.854 10.6733 115.538 10.4261C115.223 10.179 114.838 10.0554 114.383 10.0554C113.932 10.0554 113.547 10.179 113.229 10.4261C112.913 10.6733 112.673 11.0014 112.508 11.4105C112.346 11.8196 112.265 12.2685 112.265 12.7571C112.265 13.2457 112.346 13.6932 112.508 14.0994C112.673 14.5057 112.913 14.831 113.229 15.0753C113.544 15.3196 113.929 15.4418 114.383 15.4418ZM119.688 11.9091V16H118.929V9.45455H119.666V10.4815H119.735C119.888 10.1463 120.127 9.87784 120.45 9.67614C120.777 9.47159 121.181 9.36932 121.661 9.36932C122.101 9.36932 122.487 9.46165 122.82 9.64631C123.155 9.82812 123.415 10.0966 123.6 10.4517C123.787 10.8068 123.881 11.2429 123.881 11.7599V16H123.122V11.8068C123.122 11.2699 122.972 10.8452 122.671 10.5327C122.372 10.2202 121.972 10.0639 121.469 10.0639C121.125 10.0639 120.82 10.1378 120.553 10.2855C120.286 10.4332 120.074 10.6463 119.918 10.9247C119.764 11.2003 119.688 11.5284 119.688 11.9091ZM128.525 16.1364C127.914 16.1364 127.385 15.9943 126.939 15.7102C126.493 15.4233 126.148 15.027 125.904 14.5213C125.662 14.0128 125.542 13.4276 125.542 12.7656C125.542 12.1065 125.662 11.5213 125.904 11.0099C126.148 10.4957 126.485 10.0937 126.914 9.80398C127.346 9.51136 127.844 9.36506 128.41 9.36506C128.765 9.36506 129.107 9.4304 129.437 9.56108C129.766 9.68892 130.062 9.88636 130.323 10.1534C130.587 10.4176 130.796 10.7514 130.949 11.1548C131.103 11.5554 131.18 12.0298 131.18 12.5781V12.9531H126.066V12.2841H130.404C130.404 11.8636 130.319 11.4858 130.148 11.1506C129.981 10.8125 129.746 10.5455 129.445 10.3494C129.147 10.1534 128.802 10.0554 128.41 10.0554C127.995 10.0554 127.63 10.1662 127.314 10.3878C126.999 10.6094 126.752 10.902 126.573 11.2656C126.397 11.6293 126.307 12.027 126.305 12.4588V12.8594C126.305 13.3793 126.394 13.8338 126.573 14.223C126.755 14.6094 127.012 14.9091 127.344 15.1222C127.677 15.3352 128.07 15.4418 128.525 15.4418C128.834 15.4418 129.106 15.3935 129.339 15.2969C129.574 15.2003 129.772 15.071 129.931 14.9091C130.093 14.7443 130.215 14.5639 130.297 14.3679L131.018 14.6023C130.918 14.8778 130.755 15.1321 130.528 15.3651C130.303 15.598 130.022 15.7855 129.684 15.9276C129.349 16.0668 128.962 16.1364 128.525 16.1364ZM135.408 16.1364C134.823 16.1364 134.313 15.9901 133.878 15.6974C133.446 15.4048 133.111 15.0043 132.872 14.4957C132.634 13.9872 132.514 13.4077 132.514 12.7571C132.514 12.1009 132.635 11.517 132.877 11.0057C133.121 10.4943 133.459 10.0937 133.891 9.80398C134.323 9.51136 134.824 9.36506 135.395 9.36506C135.833 9.36506 136.229 9.45028 136.584 9.62074C136.939 9.78835 137.232 10.0256 137.462 10.3324C137.695 10.6364 137.841 10.9915 137.901 11.3977H137.134C137.054 11.0284 136.862 10.7131 136.558 10.4517C136.257 10.1875 135.874 10.0554 135.408 10.0554C134.99 10.0554 134.621 10.169 134.3 10.3963C133.979 10.6207 133.727 10.9347 133.546 11.3381C133.367 11.7386 133.277 12.2031 133.277 12.7315C133.277 13.2628 133.365 13.733 133.541 14.142C133.718 14.5483 133.965 14.8665 134.283 15.0966C134.604 15.3267 134.979 15.4418 135.408 15.4418C135.698 15.4418 135.962 15.3878 136.2 15.2798C136.442 15.169 136.644 15.0128 136.806 14.8111C136.97 14.6094 137.081 14.3693 137.138 14.0909H137.905C137.848 14.4858 137.708 14.8381 137.483 15.1477C137.262 15.4545 136.973 15.696 136.618 15.8722C136.266 16.0483 135.862 16.1364 135.408 16.1364ZM142.109 9.45455V10.1151H138.985V9.45455H142.109ZM139.961 7.88636H140.724V14.2912C140.724 14.5639 140.771 14.7784 140.865 14.9347C140.958 15.0881 141.08 15.1974 141.231 15.2628C141.382 15.3253 141.542 15.3565 141.713 15.3565C141.812 15.3565 141.897 15.3509 141.968 15.3395C142.039 15.3253 142.102 15.3111 142.156 15.2969L142.318 15.983C142.244 16.0114 142.153 16.0369 142.045 16.0597C141.937 16.0852 141.803 16.098 141.644 16.098C141.366 16.098 141.097 16.0369 140.839 15.9148C140.583 15.7926 140.373 15.6108 140.208 15.3693C140.044 15.1278 139.961 14.8281 139.961 14.4702V7.88636ZM145.66 16.1491C145.265 16.1491 144.904 16.0724 144.577 15.919C144.251 15.7628 143.991 15.5384 143.797 15.2457C143.604 14.9503 143.508 14.5923 143.508 14.1719C143.508 13.848 143.569 13.5753 143.691 13.3537C143.813 13.1321 143.986 12.9503 144.211 12.8082C144.435 12.6662 144.701 12.554 145.008 12.4716C145.314 12.3892 145.653 12.3253 146.022 12.2798C146.388 12.2344 146.698 12.1946 146.951 12.1605C147.206 12.1264 147.401 12.0724 147.535 11.9986C147.668 11.9247 147.735 11.8054 147.735 11.6406V11.4872C147.735 11.0412 147.601 10.6903 147.334 10.4347C147.07 10.1761 146.689 10.0469 146.192 10.0469C145.721 10.0469 145.336 10.1506 145.037 10.358C144.742 10.5653 144.535 10.8097 144.415 11.0909L143.695 10.831C143.843 10.473 144.047 10.1875 144.309 9.97443C144.57 9.75852 144.863 9.60369 145.187 9.50994C145.51 9.41335 145.839 9.36506 146.171 9.36506C146.421 9.36506 146.681 9.39773 146.951 9.46307C147.224 9.52841 147.476 9.64205 147.709 9.80398C147.942 9.96307 148.131 10.1861 148.276 10.473C148.421 10.7571 148.493 11.1179 148.493 11.5554V16H147.735V14.9645H147.688C147.597 15.1577 147.462 15.3452 147.283 15.527C147.104 15.7088 146.88 15.858 146.61 15.9744C146.34 16.0909 146.023 16.1491 145.66 16.1491ZM145.762 15.4545C146.165 15.4545 146.515 15.3651 146.81 15.1861C147.106 15.0071 147.333 14.7699 147.492 14.4744C147.654 14.1761 147.735 13.848 147.735 13.4901V12.544C147.678 12.598 147.583 12.6463 147.449 12.6889C147.319 12.7315 147.167 12.7699 146.993 12.804C146.823 12.8352 146.653 12.8622 146.482 12.8849C146.312 12.9077 146.158 12.9276 146.022 12.9446C145.653 12.9901 145.337 13.0611 145.076 13.1577C144.814 13.2543 144.614 13.3878 144.475 13.5582C144.336 13.7259 144.266 13.9418 144.266 14.206C144.266 14.6037 144.408 14.9119 144.692 15.1307C144.976 15.3466 145.333 15.4545 145.762 15.4545ZM150.511 16V9.45455H151.248V10.4602H151.304C151.434 10.1307 151.662 9.86506 151.986 9.66335C152.312 9.45881 152.682 9.35653 153.094 9.35653C153.156 9.35653 153.226 9.35795 153.302 9.3608C153.379 9.36364 153.443 9.36648 153.494 9.36932V10.1406C153.46 10.1349 153.4 10.1264 153.315 10.1151C153.23 10.1037 153.138 10.098 153.038 10.098C152.697 10.098 152.393 10.1705 152.126 10.3153C151.862 10.4574 151.653 10.6548 151.5 10.9077C151.346 11.1605 151.27 11.4489 151.27 11.7727V16H150.511ZM160.72 16.1364C160.135 16.1364 159.625 15.9901 159.191 15.6974C158.759 15.4048 158.423 15.0043 158.185 14.4957C157.946 13.9872 157.827 13.4077 157.827 12.7571C157.827 12.1009 157.948 11.517 158.189 11.0057C158.433 10.4943 158.771 10.0937 159.203 9.80398C159.635 9.51136 160.137 9.36506 160.708 9.36506C161.145 9.36506 161.541 9.45028 161.896 9.62074C162.252 9.78835 162.544 10.0256 162.774 10.3324C163.007 10.6364 163.154 10.9915 163.213 11.3977H162.446C162.367 11.0284 162.175 10.7131 161.871 10.4517C161.57 10.1875 161.186 10.0554 160.72 10.0554C160.303 10.0554 159.933 10.169 159.612 10.3963C159.291 10.6207 159.04 10.9347 158.858 11.3381C158.679 11.7386 158.59 12.2031 158.59 12.7315C158.59 13.2628 158.678 13.733 158.854 14.142C159.03 14.5483 159.277 14.8665 159.595 15.0966C159.916 15.3267 160.291 15.4418 160.72 15.4418C161.01 15.4418 161.274 15.3878 161.513 15.2798C161.754 15.169 161.956 15.0128 162.118 14.8111C162.283 14.6094 162.394 14.3693 162.45 14.0909H163.218C163.161 14.4858 163.02 14.8381 162.796 15.1477C162.574 15.4545 162.286 15.696 161.931 15.8722C161.578 16.0483 161.175 16.1364 160.72 16.1364ZM167.387 16.1364C166.822 16.1364 166.322 15.9929 165.887 15.706C165.455 15.419 165.117 15.0227 164.873 14.517C164.629 14.0085 164.507 13.4219 164.507 12.7571C164.507 12.0866 164.629 11.4972 164.873 10.9886C165.117 10.4773 165.455 10.0795 165.887 9.79545C166.322 9.50852 166.822 9.36506 167.387 9.36506C167.953 9.36506 168.451 9.50852 168.883 9.79545C169.315 10.0824 169.653 10.4801 169.897 10.9886C170.144 11.4972 170.268 12.0866 170.268 12.7571C170.268 13.4219 170.146 14.0085 169.901 14.517C169.657 15.0227 169.318 15.419 168.883 15.706C168.451 15.9929 167.953 16.1364 167.387 16.1364ZM167.387 15.4418C167.842 15.4418 168.227 15.3196 168.542 15.0753C168.857 14.831 169.096 14.5057 169.258 14.0994C169.423 13.6932 169.505 13.2457 169.505 12.7571C169.505 12.2685 169.423 11.8196 169.258 11.4105C169.096 11.0014 168.857 10.6733 168.542 10.4261C168.227 10.179 167.842 10.0554 167.387 10.0554C166.936 10.0554 166.551 10.179 166.232 10.4261C165.917 10.6733 165.677 11.0014 165.512 11.4105C165.35 11.8196 165.269 12.2685 165.269 12.7571C165.269 13.2457 165.35 13.6932 165.512 14.0994C165.677 14.5057 165.917 14.831 166.232 15.0753C166.548 15.3196 166.933 15.4418 167.387 15.4418ZM171.933 16V9.45455H172.67V10.4602H172.738C172.869 10.1222 173.086 9.85653 173.39 9.66335C173.697 9.46733 174.065 9.36932 174.494 9.36932C174.946 9.36932 175.317 9.47585 175.606 9.68892C175.899 9.89915 176.118 10.1889 176.263 10.5582H176.318C176.466 10.1946 176.706 9.90625 177.038 9.69318C177.373 9.47727 177.78 9.36932 178.257 9.36932C178.865 9.36932 179.345 9.56108 179.697 9.9446C180.05 10.3253 180.226 10.8821 180.226 11.6151V16H179.467V11.6151C179.467 11.098 179.335 10.7102 179.071 10.4517C178.807 10.1932 178.459 10.0639 178.027 10.0639C177.527 10.0639 177.142 10.2173 176.872 10.5241C176.602 10.831 176.467 11.2202 176.467 11.6918V16H175.692V11.5469C175.692 11.1037 175.568 10.7457 175.321 10.473C175.074 10.2003 174.726 10.0639 174.277 10.0639C173.976 10.0639 173.704 10.1378 173.463 10.2855C173.224 10.4332 173.035 10.6392 172.896 10.9034C172.76 11.1648 172.692 11.4659 172.692 11.8068V16H171.933Z" fill="black"/>
</svg>
