<svg width="39" height="36" viewBox="0 0 39 36" fill="none" xmlns="http://www.w3.org/2000/svg">
<path d="M38.1176 18.1115C38.1176 8.10603 29.5805 0 19.0588 0C8.53001 0 0 8.10603 0 18.1115C0 27.1491 6.96719 34.6428 16.0809 36V23.348H11.2411V18.1126H16.0809V14.1202C16.0809 9.58212 18.9218 7.07594 23.2768 7.07594C25.3625 7.07594 27.546 7.42911 27.546 7.42911V11.8857H25.1386C22.7753 11.8857 22.0368 13.2837 22.0368 14.7156V18.1115H27.322L26.4727 23.3469H22.0368V35.9989C31.1433 34.6416 38.1176 27.148 38.1176 18.1104V18.1115Z" fill="#164F84"/>
</svg>
