<svg width="36" height="36" viewBox="0 0 36 36" fill="none" xmlns="http://www.w3.org/2000/svg">
<path d="M18.0011 0.0011534C8.05663 0.0011534 0 8.26766 0 18.4557C0 26.6138 5.15732 33.5285 12.3049 35.968C13.2083 36.1422 13.5346 35.5712 13.5346 35.0776C13.5346 34.6393 13.5245 33.4801 13.5177 31.9414C8.50778 33.0533 7.45247 29.4605 7.45247 29.4605C6.63229 27.3336 5.44872 26.7626 5.44872 26.7626C3.81961 25.6219 5.5781 25.6461 5.5781 25.6461C7.38271 25.7718 8.33227 27.5435 8.33227 27.5435C9.93775 30.367 12.5445 29.5504 13.5762 29.0752C13.7337 27.886 14.2029 27.0683 14.7137 26.6127C10.7174 26.1502 6.51528 24.5642 6.51528 17.4926C6.51528 15.473 7.21283 13.8283 8.36602 12.5364C8.16689 12.0739 7.5571 10.1939 8.52466 7.65174C8.52466 7.65174 10.0311 7.15923 13.475 9.54449C14.9162 9.13502 16.4463 8.93087 17.9752 8.92049C19.5053 8.93087 21.0343 9.13618 22.4755 9.54449C25.8991 7.15923 27.4045 7.65174 27.4045 7.65174C28.3709 10.1939 27.7611 12.0728 27.5856 12.5364C28.7275 13.8283 29.4251 15.4742 29.4251 17.4926C29.4251 24.5804 25.2173 26.1432 21.2166 26.5942C21.8421 27.1467 22.4283 28.2828 22.4283 30.0072C22.4283 32.4755 22.4058 34.464 22.4058 35.0649C22.4058 35.5447 22.7208 36.1214 23.6479 35.9357C30.8483 33.5216 36 26.6011 36 18.4546C36 8.26651 27.9434 0 17.9989 0L18.0011 0.0011534Z" fill="#164F84"/>
</svg>
