<svg width="36" height="36" viewBox="0 0 36 36" fill="none" xmlns="http://www.w3.org/2000/svg">
<path d="M18.3644 15.4271V21.5966H28.7839C28.3593 24.2449 25.6333 29.3603 18.3644 29.3603C12.0999 29.3603 6.98192 24.2741 6.98192 17.9989C6.98192 11.7236 12.0987 6.6375 18.3644 6.6375C21.9329 6.6375 24.3248 8.12025 25.6872 9.4095L30.6674 4.70475C27.4697 1.78088 23.3263 0 18.3644 0C8.21349 0 0 8.04487 0 18C0 27.9551 8.21349 36 18.3644 36C28.963 36 36 28.6988 36 18.4106C36 17.2271 35.868 16.3249 35.7073 15.4282L18.3644 15.4271Z" fill="#164F84"/>
</svg>
