<svg width="36" height="37" viewBox="0 0 36 37" fill="none" xmlns="http://www.w3.org/2000/svg">
<path d="M30.6675 30.6799H25.3429V22.3245C25.3429 20.3321 25.3013 17.7716 22.5585 17.7716C19.782 17.7716 19.359 19.9327 19.359 22.1771V30.6788H14.0276V13.4989H19.1486V15.8422H19.2173C19.9328 14.4889 21.6731 13.0658 24.2696 13.0658C29.6708 13.0658 30.6731 16.6219 30.6731 21.2456V30.6788L30.6675 30.6799ZM8.00437 11.151C6.2865 11.151 4.9095 9.76163 4.9095 8.0505C4.9095 6.345 6.29212 4.95788 8.00437 4.95788C9.71662 4.95788 11.1037 6.345 11.1037 8.0505C11.1037 9.76163 9.71662 11.151 8.00437 11.151V11.151ZM10.6751 30.6799H5.3325V13.5H10.6751V30.6799ZM33.3405 0H2.655C1.18912 0 0 1.15987 0 2.59537V33.4058C0 34.8413 1.18912 36.0011 2.655 36.0011H33.3349C34.7985 36.0011 36 34.8413 36 33.4058V2.59537C36 1.15987 34.7985 0 33.3349 0L33.3405 0Z" fill="#164F84"/>
</svg>
